HIERARCHY
ROOT RootJoint
{
    OFFSET   0.000000   0.000000   0.000000
    CHANNELS 6 Xposition Yposition Zposition Xrotation Yrotation Zrotation
    JOINT pelvis_lowerback
    {
        OFFSET   0.000000   0.093605   0.000000
        CHANNELS 3 Xrotation Yrotation Zrotation
        JOINT lowerback_torso
        {
            OFFSET   0.000000   0.100000   0.000000
            CHANNELS 3 Xrotation Yrotation Zrotation
            JOINT torso_head
            {
                OFFSET   0.000000   0.282350   0.000000
                CHANNELS 3 Xrotation Yrotation Zrotation
                End Site
                {
                    OFFSET   0.000000   0.192650   0.000000
                }
            }
            JOINT rTorso_Clavicle
            {
                OFFSET  -0.001000   0.157500   0.000000
                CHANNELS 3 Xrotation Yrotation Zrotation
                JOINT rShoulder
                {
                    OFFSET  -0.117647   0.000000   0.000000
                    CHANNELS 3 Xrotation Yrotation Zrotation
                    JOINT rElbow
                    {
                        OFFSET  -0.245000   0.000000   0.000000
                        CHANNELS 3 Xrotation Yrotation Zrotation
                        JOINT rWrist
                        {
                            OFFSET  -0.240000   0.000000   0.000000
                            CHANNELS 3 Xrotation Yrotation Zrotation
                            End Site
                            {
                                OFFSET  -0.116353  -0.002500   0.000000
                            }
                        }
                    }
                }
            }
            JOINT lTorso_Clavicle
            {
                OFFSET   0.001000   0.157500   0.000000
                CHANNELS 3 Xrotation Yrotation Zrotation
                JOINT lShoulder
                {
                    OFFSET   0.117647   0.000000   0.000000
                    CHANNELS 3 Xrotation Yrotation Zrotation
                    JOINT lElbow
                    {
                        OFFSET   0.245000   0.000000   0.000000
                        CHANNELS 3 Xrotation Yrotation Zrotation
                        JOINT lWrist
                        {
                            OFFSET   0.240000   0.000000   0.000000
                            CHANNELS 3 Xrotation Yrotation Zrotation
                            End Site
                            {
                                OFFSET   0.116353  -0.002500   0.000000
                            }
                        }
                    }
                }
            }
        }
    }
    JOINT rHip
    {
        OFFSET  -0.100000  -0.051395   0.000000
        CHANNELS 3 Xrotation Yrotation Zrotation
        JOINT rKnee
        {
            OFFSET   0.000000  -0.410000   0.000000
            CHANNELS 3 Xrotation Yrotation Zrotation
            JOINT rAnkle
            {
                OFFSET   0.000000  -0.390000   0.000000
                CHANNELS 3 Xrotation Yrotation Zrotation
                JOINT rToeJoint
                {
                    OFFSET   0.000000  -0.050000   0.130000
                    CHANNELS 3 Xrotation Yrotation Zrotation
                    End Site
                    {
                        OFFSET  -0.010000   0.002000   0.060000
                    }
                }
            }
        }
    }
    JOINT lHip
    {
        OFFSET   0.100000  -0.051395   0.000000
        CHANNELS 3 Xrotation Yrotation Zrotation
        JOINT lKnee
        {
            OFFSET   0.000000  -0.410000   0.000000
            CHANNELS 3 Xrotation Yrotation Zrotation
            JOINT lAnkle
            {
                OFFSET   0.000000  -0.390000   0.000000
                CHANNELS 3 Xrotation Yrotation Zrotation
                JOINT lToeJoint
                {
                    OFFSET   0.000000  -0.050000   0.130000
                    CHANNELS 3 Xrotation Yrotation Zrotation
                    End Site
                    {
                        OFFSET   0.010000   0.002000   0.060000
                    }
                }
            }
        }
    }
}
MOTION
Frames: 14
Frame Time:   0.008333
 -2.376719   0.925631   3.975860   0.000000   0.000000   0.000000   0.000000   0.000000   0.000000   0.000000   0.000000   0.000000   0.000000   0.000000   0.000000   0.000000   0.000000   0.000000   0.000000   0.000000   0.000000   0.000000   0.000000   0.000000   0.000000   0.000000   0.000000   0.000000   0.000000   0.000000   0.000000   0.000000   0.000000   0.000000   0.000000   0.000000   0.000000   0.000000   0.000000   0.000000   0.000000   0.000000   0.000000   0.000000   0.000000   0.000000   0.000000   0.000000   0.000000   0.000000   0.000000   0.000000   0.000000   0.000000   0.000000   0.000000   0.000000   0.000000   0.000000   0.000000   0.000000   0.000000   0.000000
 -2.377252   0.926261   3.975435  -0.133946  -0.020165  -0.318777   0.228007   0.162527   0.164207   0.109234  -0.304226   0.128271  -0.158954  -0.233800   0.286527   0.091952  -0.326630   0.580329   0.647058   0.458490   1.969721   0.013520   0.611265  -0.005072   0.240204  -0.323317  -2.859407   0.240295   0.501611  -0.354158   0.956469   0.115005  -2.042571   0.015571  -0.733671   0.009010   0.377745  -0.148703   2.757121  -0.570349  -0.226526   0.475829   2.776962  -0.003979  -0.005783  -2.889494  -0.528025  -0.268023   0.217848   0.000210  -0.001476  -0.720350   0.055583   0.383712   2.213043  -0.001229   0.000795  -1.811807   0.504072   0.177956   0.474180  -0.000988   0.002254
 -2.377920   0.927268   3.975529  -0.371511  -0.060574  -0.684161   0.434813   0.345409   0.321500   0.284622  -0.573925   0.302402  -0.272198  -0.469628   0.574355   0.188020  -0.644244   1.928137   1.262941   0.941863   4.558261   0.031214   1.204343  -0.008460   0.508678  -0.461927  -4.945440   0.485869   1.044295  -1.424969   1.906272   0.245037  -4.665124   0.035021  -1.419044   0.015124   0.811478  -0.420693   4.795108  -0.870658  -0.459578   1.041324   5.742736  -0.009199  -0.010848  -5.589416  -1.014515  -0.541812   0.308889   0.000220  -0.001783  -1.413604   0.113114   0.805918   4.520769  -0.002018   0.001380  -3.498216   0.977687   0.362467   0.878380  -0.001584   0.003606
 -2.378596   0.928225   3.976032  -0.601422  -0.134277  -1.043109   0.571942   0.551888   0.466466   0.428008  -0.791199   0.481405  -0.369898  -0.691409   0.840573   0.288061  -0.947235   3.732911   1.842406   1.441700   7.551104   0.048216   1.756912  -0.010168   0.767042  -0.555002  -6.140151   0.728587   1.589830  -2.934107   2.849407   0.365434  -7.669241   0.053332  -2.046714   0.018565   1.235041  -0.660225   6.003068  -0.978393  -0.678288   1.615433   8.615553  -0.014145  -0.014581  -8.106509  -1.455755  -0.817583   0.399222   0.000219  -0.001999  -2.123832   0.163906   1.196276   6.694154  -0.002078   0.001248  -5.071743   1.414586   0.548863   1.252360  -0.001891   0.004347
 -2.379243   0.928830   3.976820  -0.804509  -0.247024  -1.385334   0.649579   0.780058   0.603482   0.525681  -0.959278   0.656773  -0.462996  -0.898666   1.085801   0.396287  -1.235235   5.786316   2.386160   1.962414  10.812596   0.062533   2.269686  -0.010766   1.010232  -0.640682  -6.677169   0.971483   2.131711  -4.691588   3.791579   0.464322 -10.931639   0.068469  -2.621544   0.020145   1.636876  -0.846835   6.591322  -0.940837  -0.880445   2.177935  11.353371  -0.018414  -0.017362 -10.456514  -1.855814  -1.092570   0.480450   0.000212  -0.002099  -2.861321   0.207240   1.543190   8.707620  -0.001663   0.000429  -6.543114   1.816857   0.734929   1.588152  -0.001966   0.004588
 -2.379850   0.928867   3.977793  -0.982293  -0.399170  -1.709488   0.682142   1.025886   0.735550   0.585499  -1.083468   0.827254  -0.552928  -1.092246   1.312693   0.514381  -1.507660   7.951833   2.893969   2.507241  14.251185   0.073507   2.745234  -0.010711   1.238343  -0.728829  -6.774258   1.217236   2.666430  -6.569720   4.735820   0.533810 -14.367101   0.079801  -3.148354   0.020512   2.014110  -0.982555   6.759592  -0.787411  -1.065278   2.722321  13.952344  -0.021943  -0.019454 -12.651204  -2.218461  -1.364407   0.551931   0.000204  -0.002109  -3.623048   0.243307   1.848166  10.567496  -0.001036  -0.000882  -7.919386   2.187071   0.918949   1.888527  -0.001890   0.004483
 -2.380460   0.928161   3.978869  -1.139983  -0.582731  -2.013222   0.682206   1.286520   0.857199   0.618026  -1.167199   0.978588  -0.639005  -1.273402   1.527482   0.643127  -1.765968  10.148115   3.364994   3.076707  17.811098   0.081121   3.185849  -0.010325   1.452409  -0.823118  -6.582803   1.469830   3.195569  -8.532334   5.636089   0.565899 -17.769922   0.087062  -3.630959   0.019936   2.367937  -1.074118   6.578735  -0.539816  -1.232564   3.247096  16.415821  -0.024824  -0.020868 -14.701055  -2.547142  -1.631353   0.614263   0.000193  -0.002050  -4.404137   0.272351   2.116530  12.284979  -0.000423  -0.002378  -9.206621   2.527709   1.099449   2.157718  -0.001735   0.004174
 -2.380814   0.926020   3.979328  -1.298999  -0.623094  -2.066015   0.872679   1.531314   0.764446   0.620667  -1.230425   1.056508  -0.923591  -1.309186   1.571078   0.810538  -1.813759  11.819894   3.666786   3.531195  21.098797   0.087512   3.708064  -0.011093   1.541928  -1.020622  -5.155544   1.737261   3.647203  -9.824548   6.459548   0.309035 -21.025908   0.096565  -4.279342   0.021125   2.536665  -1.011884   5.284170   0.055172  -1.422546   3.518483  17.831162  -0.023726  -0.018472 -16.614456  -2.731823  -1.841976   0.976140   0.000088  -0.003033  -5.385858   0.479021   2.019733  13.956765   0.002538   0.000513 -10.545005   2.961327   1.531431   2.198694  -0.001452   0.003578
 -2.381093   0.922622   3.979288  -1.426719  -0.662414  -2.065578   1.122619   1.812693   0.649807   0.644565  -1.248964   1.090801  -1.199846  -1.334971   1.591856   0.932585  -1.758036  13.188327   3.903066   4.033210  24.036798   0.089183   4.218480  -0.012281   1.641308  -1.125935  -3.811582   1.965539   3.991143 -10.837459   7.193368  -0.024049 -23.930905   0.100202  -4.912076   0.021738   2.714316  -1.085282   4.080666   0.668095  -1.583080   3.769261  19.032355  -0.022475  -0.015885 -18.408240  -2.895015  -2.045149   1.301978  -0.000106  -0.003551  -6.487348   0.696938   1.815833  15.465215   0.005553   0.002350 -11.801498   3.358337   1.945104   2.217240  -0.001172   0.002968
 -2.381348   0.918087   3.978947  -1.540876  -0.702378  -2.053473   1.410827   2.115547   0.534641   0.693292  -1.228483   1.109361  -1.451859  -1.357798   1.608540   1.008541  -1.631488  14.326029   4.078789   4.563795  26.678744   0.087775   4.716085  -0.013546   1.753007  -1.124607  -2.714416   2.163334   4.269531 -11.654548   7.849248  -0.391304 -26.544067   0.099569  -5.514970   0.021652   2.892132  -1.229652   3.110461   1.291734  -1.726604   4.041688  20.137806  -0.021425  -0.013469 -20.083947  -3.040582  -2.239805   1.601253  -0.000346  -0.003793  -7.645061   0.906901   1.566488  16.820590   0.008107   0.003192 -12.979059   3.718877   2.339504   2.231340  -0.000936   0.002449
 -2.381511   0.914907   3.978727  -1.674661  -1.030258  -1.605191   1.709777   2.532201   0.062236   0.764582  -1.099530   0.972375  -1.675241  -1.374882   1.614446   1.038434  -1.438682  15.470407   4.195683   5.120441  29.150539   0.085245   5.200029  -0.014296   1.873536  -1.030835  -1.834875   2.356620   4.541377 -12.428414   8.447730  -0.745807 -28.928191   0.096489  -6.068598   0.020994   3.057915  -1.328085   2.381671   1.924230  -1.807967   3.908141  21.141874  -0.021224  -0.013070 -21.642162  -3.171948  -2.424751   1.919988  -0.000695  -0.004604  -8.726709   1.035529   1.101368  19.254039   0.006819  -0.003109 -13.544168   3.993931   2.794931   2.222540  -0.000719   0.001957
 -2.381659   0.912021   3.978508  -1.714376  -1.307935  -1.187022   1.945744   2.906842  -0.293951   0.804808  -0.970616   0.813886  -1.884797  -1.392997   1.605278   1.048875  -1.241452  16.440609   4.275368   5.659615  31.411476   0.081268   5.661854  -0.014675   1.991877  -0.874512  -1.042611   2.540617   4.795752 -13.128076   8.992110  -1.100560 -31.157677   0.091691  -6.588608   0.019787   3.217145  -1.436861   1.685126   2.500779  -1.903002   3.892656  22.060663  -0.021269  -0.011938 -23.098595  -3.290764  -2.601636   2.207231  -0.001160  -0.004956  -9.661048   1.245868   0.693518  21.242375   0.005598  -0.004953 -14.304559   4.299019   3.141689   2.287358  -0.000750   0.001668
 -2.381824   0.909253   3.978187  -1.680263  -1.482493  -0.779245   2.160754   3.240592  -0.598950   0.823451  -0.859304   0.666091  -2.085364  -1.411300   1.600220   1.045677  -1.048709  17.271732   4.326385   6.171399  33.474016   0.076276   6.096901  -0.014892   2.104470  -0.697001  -0.366498   2.705703   5.019521 -13.749270   9.481784  -1.458335 -33.218586   0.085764  -7.078249   0.018240   3.369188  -1.562110   1.042438   3.033408  -2.001371   3.971737  22.916825  -0.021269  -0.009943 -24.459215  -3.396344  -2.770364   2.465305  -0.001650  -0.004842 -10.547139   1.455249   0.305628  22.964799   0.004717  -0.004695 -15.073063   4.581435   3.466908   2.326804  -0.000699   0.001423
 -2.381671   0.905585   3.977414  -1.453298  -1.404816  -0.335175   2.279856   3.447592  -0.890338   0.814699  -0.778684   0.588616  -2.322858  -1.471833   1.440625   1.059225  -0.836221  17.542671   4.306878   6.584491  35.111160   0.070594   6.617201  -0.015965   2.146614  -0.447649   0.962682   2.778911   5.160044 -14.004326   9.743308  -1.746924 -34.915968   0.078899  -7.656030   0.015785   3.424466  -1.652109  -0.230428   3.737326  -2.129342   3.887460  22.236487  -0.014969  -0.008457 -25.009458  -3.316178  -2.972812   2.842189  -0.001780  -0.003932 -11.903407   1.797692  -0.086399  25.100645   0.005807   0.001987 -15.930316   4.841115   3.780186   2.219062  -0.000300   0.000576
